# xmcd
# 
# Track frame offsets:
#     150
#     14628
#     30426
#     49046
#     62968
#     80716
#     99124
#     116799
#     136582
#     155740
#     177372
# 
# Disc length: 2671
# 
# Revision: 1
# Processed by: cddbd v1.5.2PL0 Copyright (c) Steve Scherf et al.
# Submitted via: fre:ac v1.0.27
# 
DISCID=8d0a6d0b
DTITLE=Michael Carpenter and King's Rd - Kingsrdworks
DYEAR=2003
DGENRE=American Band Rock
TTITLE0=Nothing in the World
TTITLE1=King's Rd
TTITLE2=The One for Me
TTITLE3=Here It Comes
TTITLE4=Summertime
TTITLE5=Home Again
TTITLE6=Can't Be All You Need
TTITLE7=No Way Out
TTITLE8=Holiday
TTITLE9=You're So Alone
TTITLE10=Walk On
EXTD=like the music of our lovely little tomato,or little scissors,or the best musician El FAIRY(DON LIMPIO to the friends)
EXTT0=
EXTT1=
EXTT2=
EXTT3=
EXTT4=
EXTT5=
EXTT6=
EXTT7=
EXTT8=
EXTT9=
EXTT10=
PLAYORDER=
